<svg width="350" height="275" viewBox="0 0 350 275" fill="none" xmlns="http://www.w3.org/2000/svg">
<mask id="mask0_259_2182" style="mask-type:alpha" maskUnits="userSpaceOnUse" x="0" y="0" width="350" height="275">
<rect width="350" height="275" fill="#D9D9D9"/>
</mask>
<g mask="url(#mask0_259_2182)">
<circle cx="175" cy="171" r="99.5" stroke="url(#paint0_linear_259_2182)"/>
<rect x="115" y="111" width="120" height="120" rx="60" fill="#E3F6ED"/>
<path d="M180 146V156C180 157.326 180.527 158.598 181.464 159.536C182.402 160.473 183.674 161 185 161H195M167.5 178.5H182.5M175 186V171M182.5 146H160C158.674 146 157.402 146.527 156.464 147.464C155.527 148.402 155 149.674 155 151V191C155 192.326 155.527 193.598 156.464 194.536C157.402 195.473 158.674 196 160 196H190C191.326 196 192.598 195.473 193.536 194.536C194.473 193.598 195 192.326 195 191V158.5L182.5 146Z" stroke="#183225" stroke-width="4" stroke-linecap="round" stroke-linejoin="round"/>
<circle cx="175.5" cy="171.5" r="137" stroke="url(#paint1_linear_259_2182)"/>
<circle cx="175" cy="175" r="174.5" stroke="url(#paint2_linear_259_2182)"/>
</g>
<defs>
<linearGradient id="paint0_linear_259_2182" x1="175" y1="71" x2="175" y2="271" gradientUnits="userSpaceOnUse">
<stop stop-color="#A8DFC1"/>
<stop offset="1" stop-color="#A8DFC1" stop-opacity="0"/>
</linearGradient>
<linearGradient id="paint1_linear_259_2182" x1="175.5" y1="34" x2="175.5" y2="309" gradientUnits="userSpaceOnUse">
<stop stop-color="#A8DFC1"/>
<stop offset="1" stop-color="#A8DFC1" stop-opacity="0"/>
</linearGradient>
<linearGradient id="paint2_linear_259_2182" x1="175" y1="0" x2="175" y2="350" gradientUnits="userSpaceOnUse">
<stop stop-color="#A8DFC1"/>
<stop offset="1" stop-color="#A8DFC1" stop-opacity="0"/>
</linearGradient>
</defs>
</svg>
